<?xml version="1.0" encoding="UTF-8"?>
<!DOCTYPE svg PUBLIC "-//W3C//DTD SVG 1.1//EN" "http://www.w3.org/Graphics/SVG/1.1/DTD/svg11.dtd">
<svg version="1.2" width="88.06mm" height="88.06mm" viewBox="6096 9750 8806 8806" preserveAspectRatio="xMidYMid" fill-rule="evenodd" stroke-width="28.222" stroke-linejoin="round" xmlns="http://www.w3.org/2000/svg" xmlns:ooo="http://xml.openoffice.org/svg/export" xmlns:xlink="http://www.w3.org/1999/xlink" xmlns:presentation="http://sun.com/xmlns/staroffice/presentation" xmlns:smil="http://www.w3.org/2001/SMIL20/" xmlns:anim="urn:oasis:names:tc:opendocument:xmlns:animation:1.0" xml:space="preserve">
 <defs class="ClipPathGroup">
  <clipPath id="presentation_clip_path" clipPathUnits="userSpaceOnUse">
   <rect x="6096" y="9750" width="8806" height="8806"/>
  </clipPath>
  <clipPath id="presentation_clip_path_shrink" clipPathUnits="userSpaceOnUse">
   <rect x="6104" y="9758" width="8789" height="8789"/>
  </clipPath>
 </defs>
 <defs class="TextShapeIndex">
  <g ooo:slide="id1" ooo:id-list="id3 id4 id5 id6 id7 id8 id9 id10 id11 id12 id13 id14 id15 id16 id17 id18 id19 id20 id21 id22 id23 id24 id25 id26 id27 id28 id29 id30 id31 id32 id33 id34 id35 id36 id37"/>
 </defs>
 <defs class="EmbeddedBulletChars">
  <g id="bullet-char-template(57356)" transform="scale(0.00048828125,-0.00048828125)">
   <path d="M 580,1141 L 1163,571 580,0 -4,571 580,1141 Z"/>
  </g>
  <g id="bullet-char-template(57354)" transform="scale(0.00048828125,-0.00048828125)">
   <path d="M 8,1128 L 1137,1128 1137,0 8,0 8,1128 Z"/>
  </g>
  <g id="bullet-char-template(10146)" transform="scale(0.00048828125,-0.00048828125)">
   <path d="M 174,0 L 602,739 174,1481 1456,739 174,0 Z M 1358,739 L 309,1346 659,739 1358,739 Z"/>
  </g>
  <g id="bullet-char-template(10132)" transform="scale(0.00048828125,-0.00048828125)">
   <path d="M 2015,739 L 1276,0 717,0 1260,543 174,543 174,936 1260,936 717,1481 1274,1481 2015,739 Z"/>
  </g>
  <g id="bullet-char-template(10007)" transform="scale(0.00048828125,-0.00048828125)">
   <path d="M 0,-2 C -7,14 -16,27 -25,37 L 356,567 C 262,823 215,952 215,954 215,979 228,992 255,992 264,992 276,990 289,987 310,991 331,999 354,1012 L 381,999 492,748 772,1049 836,1024 860,1049 C 881,1039 901,1025 922,1006 886,937 835,863 770,784 769,783 710,716 594,584 L 774,223 C 774,196 753,168 711,139 L 727,119 C 717,90 699,76 672,76 641,76 570,178 457,381 L 164,-76 C 142,-110 111,-127 72,-127 30,-127 9,-110 8,-76 1,-67 -2,-52 -2,-32 -2,-23 -1,-13 0,-2 Z"/>
  </g>
  <g id="bullet-char-template(10004)" transform="scale(0.00048828125,-0.00048828125)">
   <path d="M 285,-33 C 182,-33 111,30 74,156 52,228 41,333 41,471 41,549 55,616 82,672 116,743 169,778 240,778 293,778 328,747 346,684 L 369,508 C 377,444 397,411 428,410 L 1163,1116 C 1174,1127 1196,1133 1229,1133 1271,1133 1292,1118 1292,1087 L 1292,965 C 1292,929 1282,901 1262,881 L 442,47 C 390,-6 338,-33 285,-33 Z"/>
  </g>
  <g id="bullet-char-template(9679)" transform="scale(0.00048828125,-0.00048828125)">
   <path d="M 813,0 C 632,0 489,54 383,161 276,268 223,411 223,592 223,773 276,916 383,1023 489,1130 632,1184 813,1184 992,1184 1136,1130 1245,1023 1353,916 1407,772 1407,592 1407,412 1353,268 1245,161 1136,54 992,0 813,0 Z"/>
  </g>
  <g id="bullet-char-template(8226)" transform="scale(0.00048828125,-0.00048828125)">
   <path d="M 346,457 C 273,457 209,483 155,535 101,586 74,649 74,723 74,796 101,859 155,911 209,963 273,989 346,989 419,989 480,963 531,910 582,859 608,796 608,723 608,648 583,586 532,535 482,483 420,457 346,457 Z"/>
  </g>
  <g id="bullet-char-template(8211)" transform="scale(0.00048828125,-0.00048828125)">
   <path d="M -4,459 L 1135,459 1135,606 -4,606 -4,459 Z"/>
  </g>
  <g id="bullet-char-template(61548)" transform="scale(0.00048828125,-0.00048828125)">
   <path d="M 173,740 C 173,903 231,1043 346,1159 462,1274 601,1332 765,1332 928,1332 1067,1274 1183,1159 1299,1043 1357,903 1357,740 1357,577 1299,437 1183,322 1067,206 928,148 765,148 601,148 462,206 346,322 231,437 173,577 173,740 Z"/>
  </g>
 </defs>
 <defs class="TextEmbeddedBitmaps"/>
 <g class="SlideGroup">
  <g>
   <g id="container-id1">
    <g id="id1" class="Slide" clip-path="url(#presentation_clip_path)">
     <g class="Page">
      <g class="com.sun.star.drawing.ClosedBezierShape">
       <g id="id3">
        <rect class="BoundingBox" stroke="none" fill="none" x="10809" y="10055" width="712" height="716"/>
        <path fill="rgb(35,31,32)" stroke="none" d="M 11516,10142 C 11538,10209 11458,10252 11417,10281 11343,10236 11269,10139 11176,10201 11145,10213 11166,10246 11160,10269 11243,10353 11397,10368 11421,10487 11444,10597 11405,10697 11308,10746 11116,10849 11010,10566 10809,10688 10829,10618 10886,10562 10925,10498 11053,10516 11088,10665 11236,10628 11272,10589 11336,10541 11285,10490 11183,10408 10976,10403 10987,10222 10957,10150 11031,10119 11053,10067 11217,10015 11352,10143 11516,10142 Z"/>
       </g>
      </g>
      <g class="com.sun.star.drawing.ClosedBezierShape">
       <g id="id4">
        <rect class="BoundingBox" stroke="none" fill="none" x="9513" y="10089" width="620" height="696"/>
        <path fill="rgb(35,31,32)" stroke="none" d="M 9704,10114 C 9801,10081 9932,10174 10028,10090 10058,10164 9983,10199 9981,10262 9893,10228 9779,10153 9690,10234 9662,10298 9739,10325 9777,10334 9912,10337 10067,10365 10123,10498 10158,10601 10082,10676 10008,10722 9869,10820 9722,10609 9616,10784 L 9582,10784 C 9566,10699 9602,10634 9611,10560 9722,10578 9850,10715 9954,10587 9962,10537 9959,10526 9935,10485 9806,10388 9536,10499 9519,10272 9495,10201 9545,10143 9601,10116 9640,10125 9683,10094 9704,10114 Z"/>
       </g>
      </g>
      <g class="com.sun.star.drawing.ClosedBezierShape">
       <g id="id5">
        <rect class="BoundingBox" stroke="none" fill="none" x="10329" y="10129" width="338" height="385"/>
        <path fill="rgb(35,31,32)" stroke="none" d="M 10666,10382 C 10565,10381 10581,10545 10463,10507 10458,10407 10238,10353 10373,10286 L 10506,10129 C 10578,10191 10653,10281 10666,10382 Z"/>
       </g>
      </g>
      <g class="com.sun.star.drawing.ClosedBezierShape">
       <g id="id6">
        <rect class="BoundingBox" stroke="none" fill="none" x="11617" y="10206" width="748" height="786"/>
        <path fill="rgb(35,31,32)" stroke="none" d="M 12291,10449 C 12330,10483 12395,10511 12346,10568 L 12261,10656 C 12193,10625 12177,10494 12071,10522 11986,10664 11869,10813 11927,10988 11804,11008 11730,10899 11617,10893 11620,10806 11758,10855 11768,10753 11815,10639 11916,10524 11897,10407 11831,10334 11735,10339 11640,10344 11617,10281 11679,10251 11705,10206 11918,10241 12090,10382 12291,10449 Z"/>
       </g>
      </g>
      <g class="com.sun.star.drawing.ClosedBezierShape">
       <g id="id7">
        <rect class="BoundingBox" stroke="none" fill="none" x="7994" y="10579" width="710" height="763"/>
        <path fill="rgb(35,31,32)" stroke="none" d="M 8588,10669 L 8589,10720 C 8505,10699 8440,10755 8404,10810 8449,10951 8545,11116 8702,11162 L 8703,11197 C 8613,11244 8538,11328 8432,11340 8493,11161 8354,11028 8252,10898 8109,10851 8098,11175 7995,10939 L 7994,10887 8450,10586 C 8531,10560 8551,10618 8588,10669 Z"/>
       </g>
      </g>
      <g class="com.sun.star.drawing.ClosedBezierShape">
       <g id="id8">
        <rect class="BoundingBox" stroke="none" fill="none" x="8819" y="10354" width="630" height="740"/>
        <path fill="rgb(35,31,32)" stroke="none" d="M 9447,10855 C 9383,10793 9263,10718 9220,10638 9116,10535 9001,10348 8854,10355 8832,10527 8836,10732 8866,10902 8857,10968 8823,11024 8819,11092 8901,11086 8973,11059 9040,11018 9052,10969 8992,10951 8969,10918 8969,10881 8963,10843 8984,10815 9046,10809 9077,10733 9155,10759 9216,10799 9234,10858 9226,10929 9300,10903 9386,10907 9447,10855 Z M 9015,10659 L 8998,10678 C 8962,10657 8958,10621 8979,10591 8991,10599 9028,10626 9015,10659 Z"/>
       </g>
      </g>
      <g class="com.sun.star.drawing.ClosedBezierShape">
       <g id="id9">
        <rect class="BoundingBox" stroke="none" fill="none" x="12254" y="10548" width="769" height="787"/>
        <path fill="rgb(35,31,32)" stroke="none" d="M 12673,10698 C 12505,10762 12406,10940 12408,11114 12435,11182 12506,11213 12582,11195 12685,11079 12787,10961 12813,10814 L 12847,10779 C 12905,10841 13024,10861 13021,10964 12790,10999 12804,11336 12550,11333 12432,11318 12302,11255 12255,11135 12267,10919 12409,10755 12447,10548 12535,10564 12616,10639 12673,10698 Z"/>
       </g>
      </g>
      <g class="com.sun.star.drawing.ClosedBezierShape">
       <g id="id10">
        <rect class="BoundingBox" stroke="none" fill="none" x="7643" y="11069" width="590" height="609"/>
        <path fill="rgb(35,31,32)" stroke="none" d="M 7829,11113 C 7881,11223 7953,11324 8041,11417 8081,11511 8180,11452 8232,11515 8169,11557 8117,11693 8013,11674 7973,11491 7813,11345 7677,11220 L 7643,11221 C 7660,11152 7792,10991 7829,11113 Z"/>
       </g>
      </g>
      <g class="com.sun.star.drawing.ClosedBezierShape">
       <g id="id11">
        <rect class="BoundingBox" stroke="none" fill="none" x="7173" y="11383" width="729" height="848"/>
        <path fill="rgb(35,31,32)" stroke="none" d="M 7581,11546 C 7468,11573 7372,11636 7346,11756 7400,11841 7458,11739 7516,11735 7563,11665 7632,11643 7703,11629 7771,11651 7867,11636 7893,11727 7923,11841 7851,11932 7762,11986 7704,12003 7654,12038 7610,12092 7600,12140 7601,12165 7613,12211 7596,12206 7589,12220 7579,12229 7531,12169 7483,12110 7489,12026 7568,11985 7662,11904 7690,11817 7664,11760 7587,11782 7552,11803 7485,11890 7394,11926 7281,11911 7221,11887 7185,11821 7176,11760 7152,11662 7267,11603 7325,11551 7468,11566 7407,11275 7544,11427 L 7581,11546 Z"/>
       </g>
      </g>
      <g class="com.sun.star.drawing.ClosedBezierShape">
       <g id="id12">
        <rect class="BoundingBox" stroke="none" fill="none" x="12742" y="11060" width="804" height="755"/>
        <path fill="rgb(35,31,32)" stroke="none" d="M 13227,11060 L 13159,11062 C 13075,11223 12946,11456 12742,11482 L 13004,11750 C 13104,11810 13257,11844 13364,11776 13487,11706 13539,11577 13545,11446 13500,11291 13365,11161 13227,11060 Z M 13325,11571 C 13288,11632 13228,11640 13173,11661 13107,11664 13076,11576 13017,11561 13040,11447 13164,11357 13251,11282 13300,11273 13338,11330 13355,11366 13396,11433 13361,11513 13325,11571 Z"/>
       </g>
      </g>
      <g class="com.sun.star.drawing.ClosedBezierShape">
       <g id="id13">
        <rect class="BoundingBox" stroke="none" fill="none" x="13214" y="11613" width="699" height="608"/>
        <path fill="rgb(35,31,32)" stroke="none" d="M 13912,11832 C 13709,11889 13462,11986 13390,12203 L 13373,12220 C 13302,12144 13249,12060 13214,11967 13443,11975 13623,11800 13737,11613 13827,11641 13854,11759 13912,11832 Z"/>
       </g>
      </g>
      <g class="com.sun.star.drawing.ClosedBezierShape">
       <g id="id14">
        <rect class="BoundingBox" stroke="none" fill="none" x="6667" y="12115" width="866" height="790"/>
        <path fill="rgb(35,31,32)" stroke="none" d="M 7310,12356 C 7218,12352 7209,12251 7186,12187 7112,12164 7056,12094 6962,12123 6785,12243 6727,12467 6667,12661 6884,12671 7097,12732 7236,12904 7294,12834 7327,12754 7333,12663 7252,12661 7207,12690 7144,12633 7153,12563 7181,12499 7226,12443 7320,12396 7366,12514 7417,12542 7471,12478 7499,12405 7532,12334 7467,12312 7396,12375 7310,12356 Z M 6989,12568 C 6933,12555 6816,12543 6850,12452 6915,12392 6960,12223 7070,12327 7092,12427 7046,12500 6989,12568 Z"/>
       </g>
      </g>
      <g class="com.sun.star.drawing.ClosedBezierShape">
       <g id="id15">
        <rect class="BoundingBox" stroke="none" fill="none" x="13549" y="12071" width="670" height="687"/>
        <path fill="rgb(35,31,32)" stroke="none" d="M 14126,12169 C 13995,12023 13733,12048 13613,12197 13552,12302 13519,12461 13587,12574 13663,12686 13777,12773 13917,12755 14030,12736 14147,12658 14204,12577 14229,12440 14228,12271 14126,12169 Z M 14065,12529 C 13992,12599 13874,12618 13776,12586 13703,12549 13713,12475 13687,12418 13714,12330 13744,12250 13836,12209 13934,12198 14039,12205 14078,12306 14100,12370 14118,12474 14065,12529 Z"/>
       </g>
      </g>
      <g class="com.sun.star.drawing.ClosedBezierShape">
       <g id="id16">
        <rect class="BoundingBox" stroke="none" fill="none" x="6424" y="12860" width="785" height="698"/>
        <path fill="rgb(35,31,32)" stroke="none" d="M 6759,12931 C 6624,13005 6583,13145 6561,13277 6602,13326 6650,13359 6717,13343 6791,13286 6715,13210 6730,13137 6793,13153 6863,13150 6918,13184 6958,13264 6760,13315 6906,13372 7030,13395 7035,13252 7073,13180 7099,13105 7022,13074 7017,13011 7095,12995 7150,13035 7207,13075 7177,13237 7074,13371 7063,13541 6997,13595 6953,13485 6891,13475 6732,13493 6602,13382 6445,13451 6419,13423 6418,13361 6442,13331 6490,13176 6538,13022 6586,12867 6664,12837 6702,12907 6759,12931 Z"/>
       </g>
      </g>
      <g class="com.sun.star.drawing.ClosedBezierShape">
       <g id="id17">
        <rect class="BoundingBox" stroke="none" fill="none" x="13783" y="12778" width="742" height="816"/>
        <path fill="rgb(35,31,32)" stroke="none" d="M 14394,12778 L 14343,12779 C 14262,12959 14057,12929 13903,12977 13855,12967 13831,12967 13783,12979 L 13822,13184 C 13889,13286 13919,13111 13992,13128 14032,13158 14055,13196 14045,13247 14000,13305 13945,13345 13877,13353 13876,13445 13876,13550 13950,13592 13962,13563 13998,13545 13983,13506 14018,13439 14083,13368 14168,13381 14224,13469 14351,13426 14425,13409 14647,13241 14431,12977 14394,12778 Z M 14268,13242 C 14197,13230 14204,13154 14179,13107 14221,13019 14362,13051 14334,13155 14337,13206 14311,13227 14268,13242 Z"/>
       </g>
      </g>
      <g class="com.sun.star.drawing.ClosedBezierShape">
       <g id="id18">
        <rect class="BoundingBox" stroke="none" fill="none" x="6359" y="13657" width="656" height="807"/>
        <path fill="rgb(35,31,32)" stroke="none" d="M 7007,14072 C 7031,14133 6978,14193 6924,14193 6743,14283 6529,14296 6382,14462 6361,14388 6338,14270 6393,14205 6541,14270 6654,14157 6767,14094 6724,13980 6582,13972 6489,13912 L 6370,13931 C 6387,13841 6361,13733 6416,13657 6577,13847 6799,13959 7007,14072 Z"/>
       </g>
      </g>
      <g class="com.sun.star.drawing.ClosedBezierShape">
       <g id="id19">
        <rect class="BoundingBox" stroke="none" fill="none" x="13943" y="13628" width="694" height="724"/>
        <path fill="rgb(35,31,32)" stroke="none" d="M 14585,13628 C 14618,13708 14601,13810 14608,13901 14498,13831 14343,13824 14214,13859 14173,13870 14147,13917 14113,13946 14094,14037 14141,14116 14220,14150 14351,14150 14481,14150 14578,14073 L 14629,14072 C 14574,14165 14673,14254 14618,14346 14546,14371 14519,14278 14462,14264 14292,14254 14075,14321 13981,14155 13912,14052 13946,13906 14007,13812 14128,13649 14403,13766 14551,13629 L 14585,13628 Z"/>
       </g>
      </g>
      <g class="com.sun.star.drawing.ClosedBezierShape">
       <g id="id20">
        <rect class="BoundingBox" stroke="none" fill="none" x="13767" y="14392" width="840" height="968"/>
        <path fill="rgb(35,31,32)" stroke="none" d="M 14160,14509 C 14294,14557 14424,14668 14573,14620 14586,14667 14625,14704 14593,14756 14492,14832 14250,14809 14291,14986 14374,15109 14602,15166 14469,15341 14459,15362 14438,15358 14419,15359 L 14349,15292 C 14178,15301 13984,15209 13836,15321 13813,15315 13779,15336 13767,15305 13797,15227 13782,15086 13883,15080 13919,15197 14062,15114 14141,15160 14164,15130 14207,15148 14225,15107 14184,15021 14107,14949 14049,14870 14119,14805 14222,14811 14285,14728 14217,14672 14142,14634 14060,14614 14020,14626 13992,14664 13941,14651 L 13969,14394 C 14055,14378 14090,14489 14160,14509 Z"/>
       </g>
      </g>
      <g class="com.sun.star.drawing.ClosedBezierShape">
       <g id="id21">
        <rect class="BoundingBox" stroke="none" fill="none" x="6388" y="14584" width="637" height="357"/>
        <path fill="rgb(35,31,32)" stroke="none" d="M 7023,14807 C 6879,14663 6706,14810 6544,14817 6511,14858 6478,14914 6444,14939 6405,14863 6365,14735 6403,14631 6445,14635 6465,14695 6507,14698 6673,14659 6870,14699 7001,14584 7032,14647 7019,14752 7023,14807 Z"/>
       </g>
      </g>
      <g class="com.sun.star.drawing.ClosedBezierShape">
       <g id="id22">
        <rect class="BoundingBox" stroke="none" fill="none" x="8048" y="11571" width="4938" height="5528"/>
        <path fill="rgb(35,31,32)" stroke="none" d="M 12444,13325 C 12532,13258 12594,13370 12684,13354 12709,13333 12761,13324 12786,13352 12803,13320 12843,13339 12871,13333 12919,13329 12915,13275 12938,13246 12389,13175 12559,12546 12197,12271 12220,12163 12288,12074 12258,11945 12219,11903 12201,11806 12119,11828 12089,11877 12071,11918 12019,11950 11889,11981 11816,11867 11709,11837 11486,11891 11563,11633 11378,11589 11301,11576 11154,11538 11124,11646 L 11246,11780 C 11303,11909 11232,12030 11186,12140 11185,12257 11252,12345 11329,12427 11358,12474 11336,12590 11435,12562 11533,12518 11537,12423 11600,12336 11630,12334 11647,12369 11670,12386 11668,12510 11839,12558 11779,12708 11728,12875 11548,12888 11445,13006 11318,12992 11246,13100 11139,13132 11056,13110 11057,13020 11017,12964 11033,12952 11042,12922 11067,12929 11112,12913 11124,12894 11116,12842 11067,12773 10996,12759 10926,12744 10703,12552 10965,12309 10945,12077 10924,11791 10572,11899 10376,11833 10252,11981 9948,11826 9902,12049 9942,12075 9890,12172 9973,12150 9965,12126 9995,12115 10006,12098 10141,12069 10303,12118 10385,12243 10274,12288 10159,12123 10043,12234 10091,12291 10177,12251 10216,12332 10360,12399 10297,12579 10292,12690 10246,12845 10080,12865 9974,12953 9958,13000 10003,13019 10010,13055 9963,13188 9829,13119 9738,13095 9650,13023 9470,13037 9476,12879 9430,12877 9414,12801 9356,12830 9332,12802 9291,12782 9285,12746 9209,12694 9146,12591 9194,12492 9320,12336 9354,12626 9503,12571 9485,12424 9579,12321 9649,12208 9696,12069 9628,11939 9589,11817 9594,11725 9706,11706 9705,11626 9533,11545 9342,11690 9334,11856 9226,11950 9085,11967 8944,11985 8873,11965 8838,11853 8753,11869 8726,11917 8688,11960 8705,12024 8681,12132 8742,12218 8830,12261 8723,12446 8642,12642 8587,12848 8465,13063 8250,13136 8048,13201 8086,13320 8233,13315 8341,13331 8410,13321 8521,13264 8564,13343 8338,13712 8448,14227 8060,14518 L 8180,14532 C 8526,14520 8583,14128 8730,13905 L 8747,13922 C 8669,14384 8790,14969 8350,15247 8459,15295 8567,15293 8674,15239 8877,15074 8954,14830 8985,14583 9027,14411 9016,14219 9110,14067 9179,14141 9123,14271 9167,14356 9129,14824 9325,15396 8976,15728 9005,15739 9024,15775 9062,15760 9441,15652 9377,15193 9418,14864 9443,14709 9416,14535 9493,14400 9506,14469 9544,14525 9532,14605 L 9583,14603 C 9624,14409 9691,14224 9707,14020 L 9740,13985 9793,14035 C 9825,14005 9871,13951 9875,13896 9893,13962 9916,14026 9914,14100 9831,14223 9955,14427 9821,14530 9759,14680 9800,14871 9865,15007 9900,15195 9844,15404 9689,15524 9639,15485 9603,15439 9618,15372 9602,15307 9561,15268 9495,15255 9484,15325 9460,15389 9414,15445 9385,15550 9491,15610 9556,15681 9487,15887 9106,15627 9185,15928 L 9271,15926 C 9429,16031 9525,15800 9678,15798 9763,15917 9539,16002 9566,16142 9656,16126 9746,16109 9803,16017 9762,15834 9975,15749 10085,15669 10224,15662 10148,15512 10166,15428 10101,15440 10061,15505 9996,15517 9967,15500 9967,15469 9944,15450 9993,15317 10030,15164 10141,15070 10300,15331 10282,15671 10315,15989 10297,16103 10212,15988 10144,16027 10063,16060 10092,16164 10064,16233 9998,16195 9925,16175 9841,16187 9806,16202 9751,16239 9775,16291 9921,16345 9908,16515 10038,16576 10027,16598 10005,16593 9986,16594 9919,16621 9818,16695 9837,16785 9946,16785 10046,16861 10145,16830 10184,16830 10227,16819 10249,16862 10266,16956 10312,17053 10408,17097 10514,17063 10650,16996 10676,16886 10650,16684 10849,16914 10948,16812 11010,16798 11087,16892 11119,16808 11130,16670 10965,16639 10925,16539 11012,16498 11059,16367 11161,16363 11170,16314 11143,16280 11124,16244 11028,16178 10900,16231 10799,16251 10747,16207 10823,16170 10796,16115 10777,16043 10699,16042 10640,16033 10528,15851 10620,15623 10610,15418 10664,15292 10614,15095 10772,15038 10979,15078 10934,15318 10970,15478 10892,15572 10826,15419 10730,15450 L 10750,15568 C 10766,15615 10815,15652 10871,15634 11025,15694 11170,15788 11186,15969 11238,16037 11328,16005 11377,16084 11408,16060 11386,16016 11391,15982 11353,15893 11189,15838 11249,15729 11376,15826 11542,15882 11696,15855 11642,15647 11405,15717 11297,15608 11354,15546 11455,15587 11500,15501 11532,15387 11436,15331 11443,15228 11245,15213 11348,15448 11227,15507 11168,15503 11170,15454 11123,15423 10965,15066 11260,14767 11049,14434 11108,14272 10987,14060 11071,13887 11128,13912 11130,13993 11177,14038 11202,14044 11211,14014 11227,14003 L 11262,14036 C 11275,14235 11314,14422 11378,14597 11434,14527 11430,14432 11475,14356 L 11510,14390 11583,15413 11657,15617 C 11710,15735 11837,15822 11969,15815 L 11968,15781 C 11823,15673 11841,15495 11804,15340 11819,14958 11807,14566 11847,14194 L 11880,14159 C 12006,14560 11980,15043 12334,15328 12420,15332 12507,15387 12591,15339 L 12591,15306 C 12260,15092 12235,14653 12224,14254 L 12258,14219 C 12270,14250 12303,14229 12326,14235 12404,14317 12463,14406 12504,14504 12582,14614 12696,14709 12833,14702 12884,14672 12972,14693 12985,14613 12476,14375 12675,13732 12444,13325 Z M 11649,13001 C 11653,13044 11605,13036 11582,13054 11562,13009 11618,12998 11649,13001 Z M 10389,12414 C 10431,12383 10496,12406 10524,12343 10533,12178 10373,12104 10260,12024 10241,12024 10220,12029 10209,12008 10379,11991 10488,12236 10656,12117 10702,12040 10551,11990 10652,11947 10754,11941 10822,12001 10843,12096 10846,12333 10593,12690 10911,12830 L 10928,12846 C 10849,12851 10827,12983 10725,12937 10676,12903 10645,12820 10569,12854 L 10503,12942 C 10449,12807 10312,12884 10230,12930 10389,12815 10412,12616 10389,12414 Z M 10080,13139 C 10152,13053 10274,13079 10369,13047 10439,13078 10434,13187 10525,13163 L 10607,13024 C 10756,13135 11001,12911 11004,13204 10976,13293 10941,13379 10856,13446 10733,13371 10738,13209 10677,13091 10542,13098 10590,13295 10460,13318 10402,13255 10362,13183 10352,13099 10274,13132 10299,13237 10272,13305 10212,13350 10195,13457 10104,13446 10019,13356 10037,13242 10080,13139 Z M 10668,13416 C 10614,13516 10566,13663 10451,13694 10403,13606 10303,13519 10359,13406 10481,13597 10605,13241 10668,13416 Z M 10004,14321 C 10119,14386 10196,14269 10293,14246 L 10328,14279 C 10317,14393 10221,14490 10129,14557 10032,14554 10035,14446 9989,14389 9994,14367 9973,14334 10004,14321 Z M 10115,13908 C 10116,13918 10115,13925 10112,13931 10116,13980 10194,13939 10218,13974 10229,14063 10219,14145 10138,14198 10095,14218 10081,14165 10051,14149 10019,14097 10038,14024 10030,13961 10045,13927 10099,13957 10112,13931 10112,13925 10113,13917 10115,13908 Z M 9774,13214 C 9762,13245 9729,13226 9707,13233 L 9689,13216 C 9714,13206 9752,13180 9774,13214 Z M 9892,13896 L 9891,13861 9907,13809 9892,13896 Z M 9900,13467 C 9815,13528 9861,13639 9802,13709 9763,13690 9747,13585 9664,13627 9613,13771 9639,13946 9589,14091 9557,14040 9574,13965 9567,13903 L 9618,13851 C 9447,13828 9600,13476 9408,13650 9399,13769 9365,13901 9382,14010 L 9301,14986 9284,15003 C 9307,14507 9191,14011 9216,13482 L 9181,13415 C 9095,13475 9044,13551 9014,13636 9015,13638 9015,13639 9015,13641 L 9011,13645 C 8944,13849 8986,14103 8927,14311 8831,14597 8890,14945 8639,15171 L 8605,15172 C 8919,14726 8795,14109 8928,13592 8852,13519 9006,13365 8855,13371 8679,13689 8552,14027 8364,14340 8351,14267 8459,14198 8478,14115 8497,13790 8616,13506 8732,13220 8725,13190 8748,13131 8696,13136 8566,13159 8466,13254 8322,13247 L 8254,13248 C 8363,13149 8522,13098 8623,12949 8810,12728 8776,12422 9018,12223 9033,12052 8731,12220 8808,12022 8989,12186 9183,11991 9370,11975 9416,11917 9412,11839 9469,11785 9508,11935 9652,12172 9464,12315 9414,12397 9348,12306 9276,12336 9207,12323 9189,12236 9221,12184 9237,12189 9245,12176 9255,12166 9285,12188 9267,12233 9309,12250 9351,12262 9383,12233 9392,12197 9419,12127 9349,12086 9304,12062 9214,12042 9142,12095 9101,12152 9070,12217 9096,12320 9089,12375 9010,12388 8891,12411 8853,12517 8852,12646 8742,12732 8741,12861 8720,12913 8646,12965 8676,13016 8816,12960 8799,12787 8943,12703 8943,12683 8937,12662 8958,12651 9033,12633 9087,12742 9166,12749 9163,12775 9195,12787 9185,12817 L 9168,12835 C 9135,12783 9084,12781 9030,12786 8955,12982 8789,13143 8717,13340 L 8735,13357 C 8808,13199 8979,13122 9034,12957 9152,13022 9252,12896 9358,12932 9353,12961 9374,13000 9343,13018 9305,13001 9271,12975 9222,12987 9084,13072 9090,13243 8974,13351 8959,13448 8944,13546 8930,13643 8947,13654 8957,13683 8981,13676 L 9011,13645 C 9012,13642 9013,13639 9014,13636 9010,13462 9111,13329 9158,13176 9242,13057 9411,13209 9498,13083 9519,13098 9569,13086 9550,13134 9519,13181 9488,13119 9448,13136 9235,13273 9306,13550 9274,13772 L 9309,13805 C 9353,13712 9349,13600 9405,13513 9406,13438 9352,13351 9417,13290 9492,13275 9554,13328 9622,13286 9618,13383 9564,13481 9612,13576 9659,13535 9654,13473 9676,13421 9749,13363 9848,13329 9895,13246 9914,13246 9935,13240 9946,13261 9930,13290 9877,13305 9897,13348 10001,13420 10036,13701 10209,13563 10242,13609 10300,13686 10230,13734 10158,13843 10049,13748 10007,13670 9953,13611 9971,13519 9900,13467 Z M 10187,14846 C 10121,14900 10049,14967 9966,14902 9877,14872 9913,14733 9926,14664 10000,14612 10049,14804 10150,14711 L 10217,14657 C 10339,14694 10212,14790 10187,14846 Z M 10275,14981 L 10310,15014 C 10340,15178 10374,15339 10389,15508 L 10355,15475 10275,14981 Z M 10334,14570 C 10339,14493 10375,14413 10450,14379 10559,14364 10555,14491 10607,14547 10581,14617 10538,14681 10475,14737 10378,14734 10381,14626 10334,14570 Z M 10488,16104 C 10512,16124 10512,16154 10541,16171 10582,16174 10611,16152 10643,16135 10730,16218 10519,16334 10700,16390 10800,16396 10854,16293 10954,16299 10963,16360 10926,16417 10872,16437 10793,16429 10710,16446 10685,16527 10680,16616 10759,16651 10826,16678 10864,16678 10907,16668 10929,16710 10786,16774 10675,16538 10534,16650 10495,16789 10660,16948 10439,16977 10248,16950 10464,16601 10228,16691 10174,16728 10111,16795 10041,16746 L 10023,16730 C 10110,16689 10215,16656 10259,16554 10240,16518 10227,16479 10189,16453 10125,16425 10042,16450 9998,16371 10082,16451 10266,16351 10292,16501 10261,16515 10282,16547 10276,16571 10298,16601 10327,16608 10363,16603 10409,16649 10337,16807 10469,16754 10512,16680 10499,16524 10635,16545 10652,16510 10690,16462 10649,16425 10530,16389 10619,16261 10542,16205 10464,16216 10369,16184 10321,16262 10272,16257 10237,16214 10200,16179 L 10199,16145 C 10280,16130 10356,16291 10421,16157 10382,16003 10542,15926 10481,15763 L 10497,15745 10480,15729 C 10514,15466 10522,15193 10582,14940 L 10617,14974 C 10445,15300 10557,15737 10488,16104 Z M 10462,14174 C 10396,14074 10289,13970 10352,13834 10457,13960 10726,13697 10629,13982 10603,14057 10563,14172 10462,14174 Z M 10652,14221 C 10746,14250 10869,14369 10960,14248 10979,14345 10947,14463 10863,14541 10770,14554 10683,14472 10655,14392 10628,14346 10626,14268 10652,14221 Z M 10901,13925 L 10935,13924 C 10957,14025 10916,14103 10838,14165 10785,14134 10743,14113 10733,14048 10703,13915 10860,13999 10901,13925 Z M 10991,14879 C 10934,14918 10856,14957 10786,14919 10734,14852 10661,14840 10663,14750 10747,14617 10902,14791 10986,14658 11064,14720 10989,14806 10991,14879 Z M 11324,13726 C 11324,13685 11306,13651 11270,13625 11234,13630 11214,13672 11187,13695 11141,13615 11131,13519 11067,13447 11061,13449 11055,13451 11049,13454 10954,13561 10952,13806 10761,13790 10712,13753 10663,13694 10707,13638 10794,13520 10941,13655 10994,13494 11008,13475 11027,13463 11049,13454 11053,13449 11057,13445 11061,13441 11063,13443 11065,13445 11067,13447 11142,13420 11233,13415 11212,13301 11188,13271 11143,13292 11109,13286 11104,13246 11149,13252 11177,13251 11235,13299 11300,13332 11383,13315 11396,13423 11301,13510 11338,13606 L 11324,13726 Z M 11362,13897 C 11395,13987 11376,14035 11384,14136 11326,14094 11343,13967 11362,13897 Z M 12289,14099 L 12239,14117 C 12214,14014 12245,13951 12232,13844 12262,13924 12303,13999 12289,14099 Z M 12294,13568 C 12325,13546 12332,13517 12326,13482 L 12292,13448 C 12246,13502 12219,13398 12171,13399 L 12138,13452 C 12065,13995 12094,14557 12225,15074 12222,15062 12165,14928 12135,14854 12046,14418 12083,13925 11867,13543 11842,13537 11833,13567 11816,13579 L 11775,14042 11712,15052 11722,15479 C 11638,15308 11656,15093 11624,14900 11637,14489 11649,14036 11510,13671 11488,13677 11454,13657 11443,13689 11435,13621 11377,13554 11421,13485 11510,13403 11435,13148 11603,13207 11620,13176 11659,13194 11688,13188 11731,13286 11653,13379 11609,13464 11571,13585 11613,13759 11652,13891 11704,13896 11668,13837 11702,13821 11643,13736 11738,13648 11679,13564 11721,13398 11866,13251 11804,13066 11816,13035 11850,13053 11873,13048 11892,13135 11836,13236 11913,13320 12028,13375 11973,13534 12039,13625 12045,13498 12101,13307 11979,13216 11972,13111 12037,12970 11937,12892 11892,12879 11870,12916 11836,12929 11804,12917 11823,12883 11817,12861 11873,12810 11936,12774 12021,12788 11966,13053 12292,13106 12256,13363 L 12291,13397 C 12297,13305 12277,13182 12233,13091 12088,13000 12179,12759 12085,12661 12075,12654 12067,12647 12058,12640 12032,12625 11997,12617 11949,12618 11937,12636 11908,12646 11915,12671 11820,12643 11945,12587 11929,12534 11947,12510 11973,12506 11997,12497 11995,12566 12022,12608 12058,12640 12068,12646 12077,12653 12085,12661 12159,12713 12254,12747 12262,12868 L 12314,12918 12330,12901 C 12293,12781 12254,12647 12169,12562 12083,12456 12070,12227 11872,12261 11834,12290 11801,12343 11841,12382 L 11858,12398 11825,12433 C 11624,12333 11814,11954 11490,12014 L 11457,12048 11475,12065 11458,12082 11441,12066 C 11386,12089 11416,12145 11409,12186 11430,12216 11461,12224 11495,12218 L 11562,12132 11614,12182 C 11587,12294 11395,12239 11431,12391 11347,12308 11228,12167 11320,12034 11361,11964 11376,11884 11366,11794 11396,11844 11375,11932 11455,11946 11524,11915 11619,11892 11694,11923 11813,12026 11994,12076 12140,11999 12209,12041 12154,12109 12126,12153 L 12042,12241 C 12268,12406 12356,12663 12418,12916 12505,13041 12578,13203 12733,13267 12565,13279 12456,13137 12317,13072 12216,13238 12371,13378 12397,13531 12397,13786 12550,13975 12550,14230 L 12640,14450 C 12423,14201 12411,13863 12294,13568 Z"/>
       </g>
      </g>
      <g class="com.sun.star.drawing.ClosedBezierShape">
       <g id="id23">
        <rect class="BoundingBox" stroke="none" fill="none" x="6500" y="15025" width="817" height="852"/>
        <path fill="rgb(35,31,32)" stroke="none" d="M 7151,15177 L 7153,15246 C 7094,15250 7034,15208 6982,15250 6889,15361 6823,15482 6784,15613 6903,15676 6981,15545 7091,15538 L 7190,15399 C 7257,15451 7274,15556 7315,15635 7099,15633 6897,15700 6773,15871 6674,15896 6691,15781 6650,15737 6626,15577 6782,15467 6743,15324 6663,15299 6612,15375 6574,15412 6499,15376 6500,15277 6501,15192 6683,15262 6819,15128 6979,15096 7035,14930 7142,15099 7151,15177 Z"/>
       </g>
      </g>
      <g class="com.sun.star.drawing.ClosedBezierShape">
       <g id="id24">
        <rect class="BoundingBox" stroke="none" fill="none" x="13772" y="15598" width="368" height="357"/>
        <path fill="rgb(35,31,32)" stroke="none" d="M 14138,15844 C 14076,15905 13954,15865 13918,15951 13889,15946 13850,15967 13832,15936 13956,15815 13624,15663 13860,15661 13938,15678 13961,15570 14048,15605 14062,15691 14090,15773 14138,15844 Z"/>
       </g>
      </g>
      <g class="com.sun.star.drawing.ClosedBezierShape">
       <g id="id25">
        <rect class="BoundingBox" stroke="none" fill="none" x="6845" y="15891" width="774" height="759"/>
        <path fill="rgb(35,31,32)" stroke="none" d="M 7545,15974 C 7619,16046 7632,16166 7603,16264 7514,16435 7278,16445 7234,16649 7148,16649 7122,16533 7093,16463 7251,16426 7401,16337 7498,16197 7511,16112 7441,16047 7375,16012 7213,16011 7066,16076 6985,16225 L 6986,16261 C 6895,16243 6880,16130 6845,16058 7071,16059 7218,15830 7458,15907 L 7545,15974 Z"/>
       </g>
      </g>
      <g class="com.sun.star.drawing.ClosedBezierShape">
       <g id="id26">
        <rect class="BoundingBox" stroke="none" fill="none" x="13232" y="16077" width="799" height="753"/>
        <path fill="rgb(35,31,32)" stroke="none" d="M 14029,16290 C 14016,16368 13963,16461 13878,16481 13813,16328 13648,16203 13479,16200 13436,16248 13380,16291 13380,16356 13445,16516 13618,16629 13780,16655 13747,16717 13721,16797 13647,16829 13628,16808 13575,16807 13594,16762 13457,16608 13139,16482 13258,16222 13321,16139 13399,16091 13494,16079 13705,16062 13822,16291 14029,16290 Z"/>
       </g>
      </g>
      <g class="com.sun.star.drawing.ClosedBezierShape">
       <g id="id27">
        <rect class="BoundingBox" stroke="none" fill="none" x="7548" y="16618" width="339" height="360"/>
        <path fill="rgb(35,31,32)" stroke="none" d="M 7885,16667 C 7843,16778 7888,16872 7875,16976 7780,16987 7710,16882 7617,16947 L 7548,16915 C 7705,16825 7421,16514 7713,16654 7781,16684 7836,16586 7885,16667 Z"/>
       </g>
      </g>
      <g class="com.sun.star.drawing.ClosedBezierShape">
       <g id="id28">
        <rect class="BoundingBox" stroke="none" fill="none" x="12674" y="16674" width="795" height="797"/>
        <path fill="rgb(35,31,32)" stroke="none" d="M 12926,16690 C 12864,16860 13032,16972 13125,17097 13189,17157 13224,17054 13277,17041 13371,17016 13264,16832 13394,16902 13435,16939 13477,16976 13465,17037 13283,17182 13141,17312 12960,17460 12870,17503 12867,17395 12821,17360 12892,17335 13001,17297 13040,17201 12918,17090 12867,16871 12674,16866 12704,16788 12807,16738 12875,16674 L 12926,16690 Z"/>
       </g>
      </g>
      <g class="com.sun.star.drawing.ClosedBezierShape">
       <g id="id29">
        <rect class="BoundingBox" stroke="none" fill="none" x="7949" y="16978" width="786" height="726"/>
        <path fill="rgb(35,31,32)" stroke="none" d="M 8734,17211 C 8686,17265 8616,17341 8533,17352 8545,17261 8468,17210 8409,17150 8358,17130 8334,17151 8289,17170 8205,17370 8614,17520 8352,17699 8244,17709 8141,17705 8076,17602 8124,17474 7787,17343 8052,17295 8144,17318 8145,17627 8279,17477 8217,17361 8106,17246 8150,17104 8180,17038 8247,16986 8319,16981 8512,16955 8568,17209 8734,17211 Z"/>
       </g>
      </g>
      <g class="com.sun.star.drawing.ClosedBezierShape">
       <g id="id30">
        <rect class="BoundingBox" stroke="none" fill="none" x="12202" y="17077" width="566" height="650"/>
        <path fill="rgb(35,31,32)" stroke="none" d="M 12439,17077 C 12417,17250 12541,17401 12656,17534 12688,17567 12794,17527 12760,17618 12681,17653 12617,17726 12522,17726 12469,17533 12395,17320 12203,17220 12235,17133 12350,17100 12439,17077 Z"/>
       </g>
      </g>
      <g class="com.sun.star.drawing.ClosedBezierShape">
       <g id="id31">
        <rect class="BoundingBox" stroke="none" fill="none" x="8592" y="17275" width="495" height="659"/>
        <path fill="rgb(35,31,32)" stroke="none" d="M 9081,17374 C 9102,17422 9051,17411 9031,17428 8925,17578 8767,17730 8837,17928 8734,17954 8673,17872 8594,17830 8580,17778 8655,17791 8680,17760 8751,17607 8944,17458 8840,17277 8939,17261 8991,17366 9081,17374 Z"/>
       </g>
      </g>
      <g class="com.sun.star.drawing.ClosedBezierShape">
       <g id="id32">
        <rect class="BoundingBox" stroke="none" fill="none" x="11390" y="17307" width="898" height="836"/>
        <path fill="rgb(35,31,32)" stroke="none" d="M 12034,17325 C 12029,17512 12121,17730 12286,17832 12292,17933 12178,17898 12135,17956 11993,17950 11882,17870 11755,17827 11680,17881 11758,17953 11759,18016 11780,18039 11810,18037 11829,18066 11758,18108 11686,18151 11591,18140 11611,17925 11518,17701 11390,17545 11460,17515 11549,17459 11644,17453 11654,17533 11603,17654 11735,17691 11820,17733 11913,17814 12010,17770 11977,17638 11943,17491 11815,17415 11862,17360 11944,17268 12034,17325 Z"/>
       </g>
      </g>
      <g class="com.sun.star.drawing.ClosedBezierShape">
       <g id="id33">
        <rect class="BoundingBox" stroke="none" fill="none" x="9007" y="17473" width="731" height="717"/>
        <path fill="rgb(35,31,32)" stroke="none" d="M 9735,17600 C 9744,17660 9706,17717 9652,17738 9560,17700 9489,17608 9376,17625 9359,17660 9322,17708 9362,17745 9448,17852 9616,17863 9641,18012 9645,18104 9586,18156 9508,18186 9311,18213 9199,18020 9008,18026 9000,17977 9056,17939 9092,17922 9214,17902 9363,18198 9418,17966 9335,17826 9035,17752 9170,17544 9245,17433 9392,17479 9493,17501 9581,17516 9626,17641 9735,17600 Z"/>
       </g>
      </g>
      <g class="com.sun.star.drawing.ClosedBezierShape">
       <g id="id34">
        <rect class="BoundingBox" stroke="none" fill="none" x="9781" y="17609" width="778" height="717"/>
        <path fill="rgb(35,31,32)" stroke="none" d="M 10128,17657 C 10138,17719 10044,17740 10080,17812 10150,17895 10217,18010 10324,18046 10385,17969 10343,17852 10353,17754 10324,17726 10284,17702 10299,17654 10394,17637 10471,17673 10557,17682 10408,17815 10494,18059 10501,18231 L 10553,18281 C 10299,18446 10235,18091 10067,18017 10006,18066 10010,18161 10038,18224 L 10055,18241 C 9970,18276 9871,18240 9782,18230 9781,18192 9855,18155 9865,18107 9867,17942 9920,17776 9871,17612 9966,17601 10052,17616 10128,17657 Z"/>
       </g>
      </g>
      <g class="com.sun.star.drawing.ClosedBezierShape">
       <g id="id35">
        <rect class="BoundingBox" stroke="none" fill="none" x="10709" y="17595" width="646" height="701"/>
        <path fill="rgb(35,31,32)" stroke="none" d="M 11237,17600 C 11200,17812 11238,18032 11354,18197 L 11304,18232 10775,18295 C 10711,18272 10750,18205 10737,18160 10780,18142 10848,18173 10892,18207 10973,18169 11091,18213 11147,18116 11149,18054 11146,17978 11075,17964 11017,18005 11016,18069 10940,18069 10897,18000 10892,17892 10918,17814 L 10969,17812 C 10969,17842 11004,17857 11022,17880 11053,17890 11070,17863 11089,17844 11092,17788 11087,17737 11035,17707 10939,17749 10783,17690 10747,17834 L 10713,17835 10709,17663 C 10891,17655 11042,17576 11237,17600 Z"/>
       </g>
      </g>
      <g class="com.sun.star.drawing.ClosedBezierShape">
       <g id="id36">
        <rect class="BoundingBox" stroke="none" fill="none" x="7134" y="10822" width="6731" height="6730"/>
        <path fill="rgb(35,31,32)" stroke="none" d="M 10402,17551 C 10401,17551 10400,17551 10400,17551 10388,17550 10376,17550 10364,17550 10326,17548 10296,17516 10297,17477 10299,17439 10331,17409 10370,17411 10381,17411 10392,17411 10404,17412 10442,17413 10472,17445 10471,17483 10470,17521 10439,17551 10402,17551 Z M 10610,17550 C 10573,17550 10542,17521 10541,17483 10539,17445 10569,17413 10608,17411 10619,17411 10631,17411 10642,17410 10680,17408 10713,17438 10714,17477 10716,17515 10686,17547 10648,17549 10636,17550 10624,17550 10612,17550 10612,17550 10611,17550 10610,17550 Z M 10159,17535 C 10157,17535 10154,17535 10152,17535 10140,17533 10128,17532 10117,17531 10077,17527 10050,17492 10054,17454 10059,17416 10094,17388 10132,17393 10143,17394 10155,17395 10166,17396 10204,17400 10232,17434 10228,17473 10224,17508 10194,17535 10159,17535 Z M 10853,17533 C 10818,17533 10787,17507 10784,17471 10780,17433 10807,17399 10845,17395 10857,17394 10868,17392 10879,17391 10917,17386 10952,17414 10956,17452 10961,17490 10934,17525 10896,17529 10884,17530 10872,17532 10860,17533 10858,17533 10855,17533 10853,17533 Z M 9917,17501 C 9913,17501 9909,17501 9905,17500 9893,17498 9882,17496 9870,17494 9832,17487 9807,17450 9815,17413 9822,17375 9858,17350 9896,17357 9907,17359 9918,17361 9929,17363 9967,17370 9992,17406 9986,17444 9980,17478 9950,17501 9917,17501 Z M 11093,17499 C 11061,17499 11031,17475 11025,17442 11018,17404 11043,17368 11081,17361 11092,17359 11103,17357 11115,17354 11152,17347 11189,17372 11196,17410 11203,17447 11179,17484 11141,17491 11129,17493 11118,17495 11106,17498 11102,17498 11098,17499 11093,17499 Z M 9679,17450 C 9674,17450 9668,17449 9662,17448 9651,17445 9639,17442 9628,17439 9591,17429 9569,17391 9579,17354 9588,17316 9627,17294 9664,17304 9675,17307 9686,17310 9697,17313 9734,17322 9756,17360 9747,17398 9739,17429 9710,17450 9679,17450 Z M 11331,17446 C 11300,17446 11272,17425 11264,17394 11254,17357 11276,17319 11314,17309 11325,17306 11336,17304 11347,17301 11384,17290 11422,17312 11432,17349 11442,17387 11420,17425 11383,17435 11372,17438 11360,17441 11349,17444 11343,17445 11337,17446 11331,17446 Z M 9446,17381 C 9439,17381 9431,17380 9424,17377 9413,17373 9401,17370 9390,17366 9354,17353 9335,17313 9347,17277 9360,17241 9400,17222 9436,17234 9447,17238 9457,17242 9468,17245 9505,17258 9524,17297 9512,17334 9502,17363 9475,17381 9446,17381 Z M 11564,17376 C 11535,17376 11508,17358 11498,17329 11486,17293 11505,17253 11542,17241 11552,17237 11563,17233 11574,17230 11610,17217 11650,17236 11663,17272 11675,17308 11656,17348 11620,17361 11609,17365 11598,17369 11587,17372 11579,17375 11572,17376 11564,17376 Z M 9219,17295 C 9210,17295 9201,17293 9192,17289 9181,17285 9170,17280 9159,17276 9124,17260 9108,17219 9123,17184 9138,17149 9179,17133 9215,17148 9225,17152 9235,17157 9246,17161 9281,17176 9298,17217 9283,17252 9272,17279 9246,17295 9219,17295 Z M 11792,17289 C 11765,17289 11739,17273 11728,17247 11713,17211 11729,17170 11764,17155 11775,17151 11785,17146 11796,17142 11831,17126 11872,17142 11887,17177 11903,17213 11887,17254 11852,17269 11841,17274 11830,17279 11819,17283 11810,17287 11801,17289 11792,17289 Z M 8999,17192 C 8988,17192 8977,17190 8967,17185 8956,17179 8946,17174 8936,17168 8902,17151 8889,17108 8906,17074 8924,17040 8966,17027 9000,17045 9010,17051 9020,17056 9030,17061 9065,17078 9078,17120 9061,17154 9048,17179 9024,17192 8999,17192 Z M 12012,17185 C 11987,17185 11963,17171 11950,17147 11933,17113 11946,17071 11980,17054 11990,17048 12000,17043 12010,17038 12044,17020 12086,17033 12104,17067 12122,17100 12109,17143 12075,17161 12065,17166 12055,17172 12044,17177 12034,17182 12023,17185 12012,17185 Z M 8787,17074 C 8774,17074 8762,17070 8750,17064 8740,17057 8730,17051 8720,17045 8688,17025 8678,16982 8698,16949 8718,16917 8761,16907 8794,16927 8803,16933 8813,16939 8823,16945 8856,16965 8866,17008 8846,17040 8833,17062 8810,17074 8787,17074 Z M 12224,17065 C 12201,17065 12178,17053 12165,17032 12145,16999 12155,16956 12187,16936 12197,16930 12207,16924 12216,16918 12249,16898 12292,16907 12312,16940 12333,16972 12323,17015 12291,17036 12281,17042 12271,17048 12260,17055 12249,17062 12236,17065 12224,17065 Z M 8584,16940 C 8570,16940 8556,16936 8543,16927 8534,16920 8524,16913 8515,16906 8484,16883 8477,16840 8500,16808 8522,16777 8566,16770 8597,16793 8606,16799 8615,16806 8624,16813 8656,16836 8663,16879 8640,16911 8627,16930 8605,16940 8584,16940 Z M 12426,16930 C 12405,16930 12384,16920 12370,16901 12348,16870 12355,16826 12386,16803 12395,16796 12404,16789 12413,16783 12444,16760 12488,16766 12510,16797 12533,16829 12527,16873 12496,16895 12486,16903 12477,16910 12467,16916 12455,16925 12441,16930 12426,16930 Z M 8391,16790 C 8376,16790 8360,16785 8347,16774 8338,16766 8329,16759 8320,16751 8290,16726 8287,16682 8312,16653 8337,16624 8381,16620 8410,16645 8418,16653 8427,16660 8436,16667 8465,16692 8469,16736 8445,16765 8431,16782 8411,16790 8391,16790 Z M 12618,16779 C 12599,16779 12579,16770 12565,16754 12540,16725 12544,16681 12574,16656 12582,16649 12591,16641 12599,16634 12629,16609 12673,16612 12698,16642 12723,16671 12719,16715 12690,16740 12681,16747 12672,16755 12663,16763 12650,16774 12634,16779 12618,16779 Z M 8210,16628 C 8193,16628 8175,16621 8162,16608 8153,16600 8145,16592 8137,16584 8109,16557 8109,16513 8136,16485 8163,16458 8207,16458 8234,16484 8242,16492 8250,16500 8258,16508 8286,16535 8287,16579 8260,16607 8247,16621 8228,16628 8210,16628 Z M 12799,16616 C 12781,16616 12762,16609 12749,16595 12722,16567 12723,16523 12750,16496 12758,16488 12766,16480 12774,16472 12802,16445 12846,16445 12873,16472 12900,16500 12900,16544 12872,16571 12864,16579 12856,16588 12847,16596 12834,16609 12816,16616 12799,16616 Z M 8041,16453 C 8022,16453 8003,16445 7990,16429 7982,16421 7974,16412 7966,16403 7941,16374 7944,16330 7973,16305 8001,16279 8045,16282 8071,16311 8078,16320 8086,16328 8093,16337 8119,16365 8116,16409 8088,16435 8075,16447 8058,16453 8041,16453 Z M 12966,16439 C 12950,16439 12934,16434 12920,16422 12892,16396 12889,16353 12914,16324 12922,16315 12929,16307 12937,16298 12962,16269 13006,16266 13035,16291 13064,16316 13067,16360 13042,16389 13034,16398 13026,16407 13019,16416 13005,16431 12986,16439 12966,16439 Z M 7886,16265 C 7865,16265 7845,16256 7831,16238 7824,16229 7816,16219 7809,16210 7786,16179 7792,16136 7823,16113 7854,16089 7897,16096 7920,16126 7927,16135 7934,16144 7941,16153 7964,16184 7959,16227 7928,16251 7916,16261 7901,16265 7886,16265 Z M 13121,16252 C 13106,16252 13091,16247 13079,16237 13048,16214 13042,16170 13066,16140 13072,16131 13079,16122 13086,16113 13109,16082 13153,16076 13183,16098 13214,16121 13220,16165 13198,16196 13190,16205 13183,16215 13176,16224 13162,16242 13142,16252 13121,16252 Z M 7745,16067 C 7722,16067 7700,16056 7687,16036 7680,16026 7674,16016 7667,16006 7646,15974 7656,15931 7688,15910 7720,15889 7763,15898 7784,15931 7790,15940 7796,15950 7803,15959 7824,15991 7815,16035 7783,16056 7771,16063 7758,16067 7745,16067 Z M 13261,16053 C 13248,16053 13235,16049 13223,16042 13191,16021 13182,15977 13203,15945 13209,15936 13215,15926 13221,15917 13242,15884 13285,15875 13317,15895 13350,15916 13359,15959 13338,15991 13332,16001 13326,16011 13319,16021 13306,16042 13284,16053 13261,16053 Z M 7618,15859 C 7594,15859 7570,15846 7557,15823 7552,15813 7546,15803 7540,15792 7522,15758 7534,15716 7568,15698 7602,15680 7644,15692 7662,15726 7668,15736 7673,15746 7679,15756 7698,15789 7686,15831 7652,15850 7641,15856 7630,15859 7618,15859 Z M 13386,15844 C 13375,15844 13363,15842 13353,15836 13319,15817 13307,15775 13325,15741 13331,15731 13336,15722 13341,15712 13360,15678 13402,15665 13436,15683 13469,15701 13482,15744 13464,15777 13458,15788 13453,15798 13447,15808 13434,15831 13411,15844 13386,15844 Z M 7508,15642 C 7481,15642 7456,15627 7444,15602 7439,15591 7435,15580 7430,15569 7414,15534 7429,15493 7464,15477 7499,15462 7541,15477 7556,15512 7561,15523 7566,15533 7571,15543 7587,15578 7572,15619 7537,15636 7527,15640 7517,15642 7508,15642 Z M 13495,15628 C 13486,15628 13476,15625 13466,15621 13431,15605 13416,15564 13432,15529 13437,15519 13442,15508 13446,15498 13462,15463 13503,15447 13538,15463 13573,15479 13589,15520 13573,15555 13568,15565 13564,15576 13559,15587 13547,15612 13522,15628 13495,15628 Z M 7413,15417 C 7385,15417 7359,15400 7348,15372 7344,15361 7340,15350 7336,15339 7323,15303 7341,15263 7377,15250 7413,15237 7453,15255 7466,15291 7470,15302 7474,15313 7478,15323 7492,15359 7474,15399 7438,15413 7430,15416 7421,15417 7413,15417 Z M 13588,15403 C 13580,15403 13572,15402 13564,15399 13528,15385 13510,15345 13523,15309 13527,15299 13531,15288 13535,15277 13548,15241 13588,15223 13624,15236 13660,15248 13679,15288 13666,15324 13662,15336 13658,15347 13653,15358 13643,15386 13617,15403 13588,15403 Z M 7336,15187 C 7306,15187 7278,15167 7269,15137 7266,15125 7263,15114 7259,15102 7249,15065 7271,15027 7308,15017 7344,15006 7383,15028 7393,15065 7396,15076 7400,15086 7403,15097 7414,15134 7392,15173 7356,15184 7349,15186 7342,15187 7336,15187 Z M 13664,15172 C 13658,15172 13652,15171 13645,15169 13608,15159 13587,15120 13598,15083 13601,15072 13604,15061 13607,15051 13617,15014 13655,14992 13692,15002 13729,15012 13751,15051 13741,15088 13738,15099 13734,15110 13731,15122 13722,15152 13695,15172 13664,15172 Z M 7276,14951 C 7244,14951 7215,14928 7208,14896 7206,14884 7203,14873 7201,14861 7193,14823 7218,14787 7255,14779 7293,14771 7330,14796 7337,14833 7339,14844 7342,14855 7344,14867 7352,14904 7328,14941 7291,14949 7286,14950 7281,14951 7276,14951 Z M 13723,14936 C 13718,14936 13714,14936 13709,14935 13671,14927 13647,14890 13655,14852 13657,14841 13660,14830 13662,14819 13669,14781 13706,14757 13744,14764 13781,14772 13806,14808 13798,14846 13796,14858 13794,14869 13791,14881 13784,14914 13755,14936 13723,14936 Z M 7234,14711 C 7200,14711 7170,14686 7165,14651 7164,14639 7162,14628 7160,14616 7156,14578 7183,14543 7221,14538 7259,14533 7294,14560 7298,14598 7300,14610 7301,14621 7303,14632 7308,14670 7282,14705 7244,14710 7240,14711 7237,14711 7234,14711 Z M 13764,14696 C 13761,14696 13758,14696 13755,14696 13717,14691 13690,14656 13695,14618 13697,14606 13698,14595 13700,14584 13704,14546 13739,14519 13777,14523 13815,14528 13842,14563 13838,14601 13836,14612 13835,14624 13833,14636 13828,14671 13799,14696 13764,14696 Z M 7210,14469 C 7173,14469 7143,14441 7140,14404 7140,14392 7139,14380 7138,14369 7136,14330 7166,14297 7204,14295 7242,14293 7275,14323 7277,14361 7278,14372 7278,14384 7279,14395 7282,14433 7252,14466 7214,14469 7213,14469 7211,14469 7210,14469 Z M 13788,14454 C 13786,14454 13785,14454 13783,14454 13745,14452 13716,14419 13718,14380 13719,14369 13719,14358 13720,14346 13722,14308 13754,14279 13793,14280 13831,14282 13861,14315 13859,14353 13858,14365 13858,14377 13857,14389 13855,14426 13824,14454 13788,14454 Z M 7203,14226 L 7202,14226 C 7164,14226 7133,14194 7134,14156 7134,14144 7134,14132 7134,14120 7135,14082 7167,14051 7205,14052 7243,14053 7274,14085 7273,14123 7273,14134 7273,14146 7273,14157 7272,14195 7241,14226 7203,14226 Z M 13793,14211 C 13755,14211 13724,14180 13723,14142 13723,14131 13723,14120 13723,14108 13722,14070 13752,14038 13791,14037 L 13792,14037 C 13830,14037 13861,14067 13862,14105 13862,14117 13862,14129 13863,14140 13863,14179 13832,14210 13794,14211 L 13793,14211 Z M 7214,13983 C 7212,13983 7210,13983 7208,13983 7170,13980 7142,13946 7145,13908 7146,13896 7147,13884 7148,13872 7151,13834 7185,13806 7224,13809 7262,13813 7290,13847 7286,13885 7285,13896 7284,13908 7283,13919 7280,13955 7250,13983 7214,13983 Z M 13781,13968 C 13745,13968 13715,13941 13712,13904 13711,13893 13710,13882 13708,13871 13705,13832 13733,13798 13771,13795 13809,13791 13843,13819 13847,13857 13848,13869 13849,13881 13850,13892 13853,13931 13825,13964 13787,13968 13785,13968 13783,13968 13781,13968 Z M 7243,13741 C 7239,13741 7236,13741 7232,13741 7194,13735 7168,13699 7174,13661 7176,13649 7178,13638 7180,13626 7186,13588 7222,13563 7260,13569 7298,13575 7323,13611 7317,13649 7315,13660 7313,13671 7312,13683 7306,13717 7277,13741 7243,13741 Z M 13751,13727 C 13717,13727 13688,13702 13682,13668 13680,13657 13679,13646 13677,13635 13670,13597 13695,13561 13733,13554 13771,13548 13807,13573 13814,13611 13816,13623 13818,13634 13820,13646 13826,13684 13800,13719 13762,13726 13758,13726 13754,13727 13751,13727 Z M 7290,13503 C 7284,13503 7279,13502 7274,13501 7236,13492 7213,13455 7222,13417 7225,13406 7227,13394 7230,13383 7239,13345 7277,13323 7314,13332 7352,13341 7374,13379 7365,13416 7363,13427 7360,13438 7357,13449 7350,13481 7321,13503 7290,13503 Z M 13703,13488 C 13672,13488 13643,13467 13636,13435 13633,13424 13630,13413 13627,13402 13618,13364 13641,13327 13678,13317 13715,13308 13753,13331 13762,13368 13765,13379 13768,13391 13771,13402 13780,13440 13757,13477 13719,13486 13714,13487 13708,13488 13703,13488 Z M 7354,13268 C 7347,13268 7340,13267 7333,13265 7296,13253 7276,13214 7288,13178 7291,13166 7295,13155 7298,13144 7310,13107 7349,13087 7386,13099 7423,13111 7442,13150 7431,13187 7427,13198 7424,13208 7420,13219 7411,13249 7383,13268 7354,13268 Z M 13638,13254 C 13608,13254 13581,13235 13572,13205 13568,13194 13565,13184 13561,13173 13549,13136 13569,13097 13605,13085 13642,13073 13681,13093 13693,13129 13697,13140 13700,13152 13704,13163 13716,13200 13696,13239 13659,13250 13652,13253 13645,13254 13638,13254 Z M 7435,13039 C 7427,13039 7418,13037 7410,13034 7374,13020 7357,12979 7371,12944 7375,12933 7380,12922 7384,12911 7399,12875 7439,12858 7475,12873 7510,12887 7527,12928 7513,12963 7508,12974 7504,12984 7500,12995 7489,13022 7463,13039 7435,13039 Z M 13555,13024 C 13528,13024 13502,13008 13491,12981 13486,12970 13482,12960 13478,12949 13463,12914 13480,12873 13515,12858 13551,12844 13591,12860 13606,12896 13611,12907 13615,12918 13620,12929 13634,12964 13617,13005 13581,13019 13573,13023 13564,13024 13555,13024 Z M 7533,12817 C 7523,12817 7513,12814 7503,12809 7469,12793 7454,12751 7471,12717 7476,12706 7481,12695 7487,12685 7504,12650 7546,12636 7580,12654 7614,12671 7628,12713 7611,12747 7606,12757 7601,12767 7596,12777 7584,12802 7559,12817 7533,12817 Z M 13456,12802 C 13430,12802 13405,12788 13393,12763 13388,12753 13383,12743 13378,12733 13361,12698 13374,12656 13409,12639 13443,12622 13485,12636 13502,12670 13507,12680 13513,12691 13518,12702 13535,12736 13521,12778 13486,12795 13476,12800 13466,12802 13456,12802 Z M 7648,12602 C 7636,12602 7624,12599 7613,12593 7580,12573 7568,12531 7588,12498 7594,12487 7600,12477 7606,12467 7625,12434 7668,12423 7701,12443 7734,12463 7745,12505 7725,12538 7719,12548 7714,12558 7708,12568 7695,12590 7672,12602 7648,12602 Z M 13340,12588 C 13316,12588 13293,12575 13280,12553 13274,12544 13268,12534 13262,12524 13243,12491 13253,12448 13286,12429 13319,12409 13362,12419 13382,12452 13388,12462 13394,12473 13400,12483 13419,12516 13408,12558 13375,12578 13364,12584 13352,12588 13340,12588 Z M 7778,12397 C 7764,12397 7750,12393 7738,12385 7707,12363 7699,12320 7720,12288 7727,12278 7734,12268 7741,12259 7763,12227 7806,12220 7837,12242 7869,12264 7876,12307 7854,12339 7848,12348 7842,12357 7835,12366 7822,12386 7800,12397 7778,12397 Z M 13209,12382 C 13187,12382 13165,12372 13151,12353 13145,12343 13139,12334 13132,12325 13110,12293 13117,12250 13148,12228 13180,12205 13223,12213 13245,12244 13252,12254 13259,12264 13266,12273 13288,12305 13280,12348 13248,12370 13236,12378 13222,12382 13209,12382 Z M 7922,12201 C 7907,12201 7892,12196 7879,12186 7849,12162 7844,12118 7868,12088 7876,12079 7883,12070 7890,12061 7915,12031 7959,12027 7988,12051 8018,12075 8022,12119 7998,12149 7991,12158 7984,12166 7977,12175 7963,12192 7943,12201 7922,12201 Z M 13063,12188 C 13043,12188 13022,12179 13009,12162 13002,12153 12994,12144 12987,12135 12963,12106 12967,12062 12996,12037 13026,12013 13070,12017 13094,12047 13102,12056 13109,12065 13117,12074 13141,12104 13136,12148 13106,12172 13094,12183 13078,12188 13063,12188 Z M 8081,12017 C 8064,12017 8047,12011 8034,11998 8006,11972 8004,11928 8030,11900 8038,11892 8046,11883 8054,11874 8081,11846 8125,11845 8153,11872 8181,11898 8182,11942 8155,11970 8148,11978 8140,11986 8132,11995 8118,12010 8100,12017 8081,12017 Z M 12903,12004 C 12884,12004 12866,11997 12852,11982 12844,11974 12837,11966 12829,11957 12802,11930 12803,11886 12831,11859 12859,11832 12903,11833 12929,11861 12937,11870 12946,11878 12954,11887 12980,11915 12979,11959 12951,11985 12937,11998 12920,12004 12903,12004 Z M 8253,11845 C 8234,11845 8216,11837 8202,11823 8176,11795 8178,11751 8206,11724 8214,11716 8223,11708 8232,11700 8260,11674 8304,11676 8330,11705 8356,11733 8354,11777 8325,11803 8317,11811 8309,11818 8300,11826 8287,11839 8270,11845 8253,11845 Z M 12730,11833 C 12713,11833 12696,11827 12683,11814 12675,11807 12666,11799 12658,11791 12629,11766 12627,11722 12653,11693 12679,11665 12723,11662 12751,11688 12760,11696 12769,11704 12777,11712 12806,11738 12807,11782 12781,11810 12768,11825 12749,11833 12730,11833 Z M 8437,11686 C 8417,11686 8397,11677 8383,11660 8359,11630 8364,11586 8394,11562 8403,11554 8412,11547 8421,11540 8452,11516 8495,11521 8519,11551 8543,11582 8537,11625 8507,11649 8498,11656 8489,11663 8481,11670 8468,11681 8452,11686 8437,11686 Z M 12545,11675 C 12530,11675 12515,11670 12502,11660 12493,11653 12484,11646 12475,11639 12445,11615 12440,11571 12463,11541 12487,11511 12530,11505 12561,11529 12570,11536 12579,11543 12589,11551 12619,11575 12624,11618 12600,11648 12586,11666 12566,11675 12545,11675 Z M 8632,11540 C 8610,11540 8589,11530 8575,11510 8553,11479 8561,11435 8593,11414 8603,11407 8613,11400 8622,11394 8654,11372 8697,11381 8719,11412 8740,11444 8732,11488 8700,11509 8691,11515 8681,11522 8672,11528 8660,11536 8646,11540 8632,11540 Z M 12349,11531 C 12336,11531 12322,11527 12310,11519 12301,11512 12292,11506 12282,11500 12250,11478 12242,11435 12263,11403 12284,11371 12327,11363 12359,11384 12369,11390 12379,11397 12389,11404 12420,11425 12429,11468 12407,11500 12394,11520 12372,11531 12349,11531 Z M 8838,11410 C 8814,11410 8791,11398 8778,11375 8759,11342 8770,11300 8803,11280 8813,11274 8823,11268 8834,11262 8867,11243 8910,11255 8929,11288 8948,11322 8936,11364 8903,11383 8893,11389 8883,11395 8873,11400 8862,11407 8850,11410 8838,11410 Z M 12144,11401 C 12132,11401 12120,11398 12109,11392 12099,11386 12089,11381 12079,11375 12046,11356 12034,11314 12053,11281 12072,11247 12114,11235 12148,11254 12158,11260 12168,11266 12178,11272 12212,11291 12223,11333 12204,11367 12191,11389 12168,11401 12144,11401 Z M 9053,11295 C 9027,11295 9002,11281 8990,11256 8973,11221 8988,11180 9022,11163 9033,11158 9043,11152 9054,11147 9089,11131 9130,11146 9147,11180 9163,11215 9149,11256 9114,11273 9104,11278 9093,11283 9083,11288 9073,11293 9063,11295 9053,11295 Z M 11929,11288 C 11919,11288 11908,11286 11899,11281 11888,11276 11878,11271 11868,11266 11833,11250 11818,11209 11835,11174 11851,11139 11892,11124 11927,11140 11938,11145 11949,11150 11959,11156 11994,11172 12008,11214 11992,11248 11980,11273 11955,11288 11929,11288 Z M 9275,11196 C 9248,11196 9222,11180 9211,11152 9197,11117 9214,11076 9250,11062 9261,11058 9272,11053 9283,11049 9319,11035 9359,11053 9373,11089 9387,11124 9369,11165 9333,11179 9322,11183 9312,11187 9301,11191 9293,11194 9284,11196 9275,11196 Z M 11706,11190 C 11698,11190 11689,11189 11681,11186 11670,11181 11660,11177 11649,11173 11613,11159 11595,11119 11609,11083 11623,11048 11663,11030 11699,11043 11710,11047 11721,11052 11732,11056 11768,11070 11785,11111 11771,11146 11760,11174 11734,11190 11706,11190 Z M 9505,11114 C 9475,11114 9448,11095 9439,11065 9427,11029 9447,10990 9484,10978 9495,10975 9507,10971 9518,10968 9555,10956 9594,10977 9605,11014 9616,11051 9595,11090 9559,11101 9548,11104 9537,11107 9526,11111 9519,11113 9512,11114 9505,11114 Z M 11477,11110 C 11470,11110 11463,11109 11456,11106 11445,11103 11435,11100 11424,11097 11387,11086 11366,11047 11377,11010 11388,10973 11427,10952 11464,10963 11475,10967 11486,10970 11498,10974 11534,10985 11555,11024 11543,11061 11534,11090 11507,11110 11477,11110 Z M 9740,11050 C 9708,11050 9680,11028 9672,10996 9663,10959 9686,10921 9724,10912 9735,10910 9747,10907 9758,10904 9796,10896 9833,10919 9841,10957 9850,10994 9826,11032 9789,11040 9778,11043 9767,11045 9756,11048 9750,11049 9745,11050 9740,11050 Z M 11242,11046 C 11237,11046 11232,11046 11226,11044 11215,11042 11204,11039 11193,11037 11156,11029 11132,10992 11140,10954 11148,10917 11186,10893 11223,10901 11235,10904 11246,10906 11258,10909 11295,10917 11318,10955 11310,10992 11302,11024 11274,11046 11242,11046 Z M 9978,11003 C 9945,11003 9915,10978 9910,10944 9904,10906 9930,10870 9967,10864 9979,10863 9991,10861 10003,10859 10041,10853 10076,10880 10082,10918 10087,10956 10061,10991 10023,10997 10012,10998 10000,11000 9989,11002 9986,11002 9982,11003 9978,11003 Z M 11003,11000 C 11000,11000 10996,11000 10993,10999 10981,10998 10970,10996 10959,10995 10921,10989 10895,10954 10900,10916 10905,10878 10941,10851 10979,10857 10990,10858 11002,10860 11014,10862 11052,10868 11078,10903 11072,10941 11067,10976 11037,11000 11003,11000 Z M 10221,10973 C 10185,10973 10155,10946 10152,10910 10148,10871 10177,10838 10215,10835 10227,10834 10239,10833 10250,10832 10289,10829 10322,10858 10325,10896 10328,10934 10299,10968 10261,10971 10249,10971 10238,10972 10227,10973 10225,10973 10223,10973 10221,10973 Z M 10762,10972 C 10760,10972 10758,10972 10756,10972 10745,10971 10733,10970 10722,10970 10684,10967 10655,10934 10658,10895 10660,10857 10693,10828 10732,10831 10743,10832 10755,10832 10767,10833 10805,10836 10834,10870 10831,10908 10828,10945 10798,10972 10762,10972 Z M 10464,10962 C 10426,10962 10395,10931 10394,10893 10394,10855 10425,10823 10463,10823 10475,10823 10487,10823 10499,10823 10506,10823 10512,10823 10519,10823 10557,10823 10588,10854 10588,10893 10588,10931 10557,10962 10518,10962 10512,10962 10505,10962 10499,10962 10487,10962 10476,10962 10465,10962 10464,10962 10464,10962 10464,10962 Z"/>
       </g>
      </g>
      <g class="com.sun.star.drawing.ClosedBezierShape">
       <g id="id37">
        <rect class="BoundingBox" stroke="none" fill="none" x="6096" y="9750" width="8807" height="8807"/>
        <path fill="rgb(35,31,32)" stroke="none" d="M 10499,18556 C 9904,18556 9328,18439 8785,18210 8524,18099 8272,17963 8037,17804 7804,17646 7585,17466 7386,17266 7186,17067 7006,16848 6848,16615 6689,16379 6552,16128 6442,15867 6213,15324 6096,14748 6096,14153 6096,13559 6213,12982 6442,12439 6552,12178 6689,11926 6848,11691 7006,11458 7186,11239 7386,11040 7585,10840 7804,10659 8037,10502 8272,10343 8524,10206 8785,10096 9328,9866 9904,9750 10499,9750 11093,9750 11669,9866 12212,10096 12473,10206 12725,10343 12960,10502 13193,10659 13413,10840 13612,11040 13812,11239 13992,11458 14150,11691 14309,11926 14446,12178 14556,12439 14785,12982 14902,13559 14902,14153 14902,14748 14785,15324 14556,15867 14446,16128 14309,16379 14150,16615 13992,16848 13812,17067 13612,17266 13413,17466 13193,17646 12960,17804 12725,17963 12473,18099 12212,18210 11669,18439 11093,18556 10499,18556 Z M 10499,9854 C 8129,9854 6200,11782 6200,14153 6200,16523 8129,18451 10499,18451 12868,18451 14798,16523 14798,14153 14798,11782 12868,9854 10499,9854 Z"/>
       </g>
      </g>
     </g>
    </g>
   </g>
  </g>
 </g>
</svg>